<?xml version="1.0" standalone="no"?><!DOCTYPE svg PUBLIC "-//W3C//DTD SVG 1.1//EN" "http://www.w3.org/Graphics/SVG/1.1/DTD/svg11.dtd"><svg t="1560304318303" class="icon" style="" viewBox="0 0 1024 1024" version="1.1" xmlns="http://www.w3.org/2000/svg" p-id="1142" data-spm-anchor-id="a313x.7781069.0.i2" xmlns:xlink="http://www.w3.org/1999/xlink" width="200" height="200"><defs><style type="text/css"></style></defs><path d="M761.088 715.3152a38.7072 38.7072 0 0 1 0-77.4144 37.4272 37.4272 0 0 0 37.4272-37.4272V265.0112a37.4272 37.4272 0 0 0-37.4272-37.4272H425.6256a37.4272 37.4272 0 0 0-37.4272 37.4272 38.7072 38.7072 0 1 1-77.4144 0 115.0976 115.0976 0 0 1 114.8416-114.8416h335.4624a115.0976 115.0976 0 0 1 114.8416 114.8416v335.4624a115.0976 115.0976 0 0 1-114.8416 114.8416z" p-id="1143" fill="#707070"></path><path d="M589.4656 883.0976H268.1856a121.1392 121.1392 0 0 1-121.2928-121.2928v-322.56a121.1392 121.1392 0 0 1 121.2928-121.344h321.28a121.1392 121.1392 0 0 1 121.2928 121.2928v322.56c1.28 67.1232-54.1696 121.344-121.2928 121.344zM268.1856 395.3152a43.52 43.52 0 0 0-43.8784 43.8784v322.56a43.52 43.52 0 0 0 43.8784 43.8784h321.28a43.52 43.52 0 0 0 43.8784-43.8784v-322.56a43.52 43.52 0 0 0-43.8784-43.8784z" p-id="1144" fill="#707070"></path></svg>